<?xml version="1.0" encoding="utf-8"?>
<!-- Generator: Adobe Illustrator 19.2.1, SVG Export Plug-In . SVG Version: 6.00 Build 0)  -->
<svg version="1.1" id="layer" xmlns="http://www.w3.org/2000/svg" xmlns:xlink="http://www.w3.org/1999/xlink" x="0px" y="0px"
	 viewBox="0 0 652 652" style="enable-background:new 0 0 652 652;" xml:space="preserve">
<style type="text/css">
	.st0{fill:#8C99A2;}
	.st1{fill:#20292F;}
	.st2{fill:#F92C8B;}
</style>
<path class="st0" d="M388.3,451.8l0.7,5.8c-1.5,0.4-2.8,0.6-4,0.6c-1.9,0-3.4-0.4-4.6-1.1c-1.1-0.7-1.9-1.8-2.4-3
	c-0.4-1.3-0.6-3.8-0.6-7.7v-22.2h-4v-5.1h4v-9.6l5.4-3.9v13.5h5.5v5.1h-5.5v22.6c0,2.1,0.2,3.4,0.5,4c0.5,0.9,1.3,1.3,2.6,1.3
	C386.6,452.1,387.3,452,388.3,451.8z M400.5,457.7v-53.3h5.4v19.1c1.3-1.8,2.7-3.1,4.3-4c1.6-0.9,3.4-1.3,5.3-1.3
	c3.4,0,6.1,1.1,8.1,3.2s3,6.1,3,11.8v24.5h-5.4v-24.5c0-3.3-0.6-5.7-1.8-7.2c-1.2-1.5-2.9-2.2-5-2.2c-2.3,0-4.3,0.9-6,2.8
	c-1.7,1.9-2.5,5.2-2.5,9.9v21.1L400.5,457.7z M463.7,445.3l5.6,0.8c-0.9,4.1-2.6,7.2-5,9.3c-2.4,2.1-5.4,3.1-9,3.1
	c-4.5,0-8.2-1.7-11-5.1c-2.8-3.4-4.2-8.3-4.2-14.8c0-6.7,1.4-11.8,4.2-15.3c2.8-3.5,6.4-5.3,10.7-5.3c4.1,0,7.6,1.7,10.3,5.2
	c2.8,3.4,4.1,8.4,4.1,15l0,1.7h-23.9c0.2,4.3,1.2,7.6,3,9.8c1.8,2.2,4,3.3,6.6,3.3C459.3,453.2,462.1,450.6,463.7,445.3z
	 M445.9,434.7h17.8c-0.2-3.3-1-5.8-2.2-7.5c-1.7-2.4-4-3.6-6.6-3.6c-2.4,0-4.5,1-6.2,3C447,428.6,446.1,431.3,445.9,434.7z
	 M483.3,457.7v-38.6h4.8v5.4c1.1-2,2.5-3.6,4.1-4.7c1.7-1.1,3.5-1.6,5.5-1.6c2.3,0,4.2,0.6,5.7,1.7s2.7,2.8,3.3,5
	c1.3-2.3,2.7-3.9,4.4-5.1s3.5-1.7,5.5-1.7c3.1,0,5.5,1,7.2,3.1c1.8,2.1,2.6,5.4,2.6,9.9v26.5h-5.4v-24.3c0-2.8-0.2-4.7-0.6-5.9
	c-0.4-1.2-1.1-2-2-2.7c-0.9-0.6-1.9-0.9-3-0.9c-2.3,0-4.2,0.9-5.7,2.7c-1.5,1.8-2.2,4.7-2.2,8.6v22.4h-5.4v-25.1
	c0-3.2-0.5-5.5-1.5-6.8s-2.4-2-4.1-2c-2.5,0-4.4,1-5.9,3c-1.4,2-2.1,5.6-2.1,10.8v20L483.3,457.7z M563.5,445.3l5.6,0.8
	c-0.9,4.1-2.6,7.2-5,9.3c-2.4,2.1-5.4,3.1-9,3.1c-4.5,0-8.2-1.7-11-5.1c-2.8-3.4-4.2-8.3-4.2-14.8c0-6.7,1.4-11.8,4.2-15.3
	c2.8-3.5,6.4-5.3,10.7-5.3c4.1,0,7.6,1.7,10.3,5.2s4.1,8.4,4.1,15l0,1.7h-23.9c0.2,4.3,1.2,7.6,3,9.8c1.8,2.2,4,3.3,6.6,3.3
	C559.1,453.2,561.9,450.6,563.5,445.3z M545.7,434.7h17.8c-0.2-3.3-1-5.8-2.2-7.5c-1.7-2.4-4-3.6-6.6-3.6c-2.4,0-4.5,1-6.2,3
	C546.8,428.6,545.9,431.3,545.7,434.7z M581,446.2l5.4-1c0.3,2.7,1.2,4.7,2.6,6.1c1.4,1.3,3.3,2,5.7,2s4.2-0.6,5.4-1.7
	c1.3-1.2,1.9-2.6,1.9-4.4c0-1.5-0.6-2.7-1.7-3.6c-0.8-0.6-2.6-1.3-5.5-2.2c-4.2-1.3-7-2.4-8.4-3.3c-1.4-0.9-2.5-2.1-3.3-3.6
	c-0.8-1.5-1.2-3.2-1.2-5.1c0-3.3,1.1-6,3.2-8c2.1-2.1,5.1-3.1,8.8-3.1c2.4,0,4.5,0.4,6.3,1.3c1.8,0.8,3.2,2,4.1,3.4
	c1,1.4,1.6,3.5,2,6.1l-5.3,0.9c-0.5-4.2-2.8-6.3-6.9-6.3c-2.3,0-4.1,0.5-5.2,1.4s-1.7,2.1-1.7,3.6c0,1.4,0.6,2.6,1.7,3.4
	c0.7,0.5,2.6,1.3,5.9,2.3c4.5,1.4,7.4,2.6,8.7,3.4s2.3,2,3.1,3.4c0.7,1.4,1.1,3.2,1.1,5.1c0,3.7-1.2,6.7-3.5,8.9
	c-2.4,2.3-5.6,3.4-9.7,3.4C586.6,458.6,582.2,454.5,581,446.2L581,446.2z"/>
<path class="st1" d="M21.5,333.4c0-16.8,4.4-30.2,13.2-40.4s19.6-15.2,32.3-15.2c8.2,0,16.1,2.3,23.6,6.8
	c7.5,4.5,13.8,10.2,18.8,16.9c1.3,1.6,1.9,3.4,1.9,5.3v0.5c0,1.5-0.4,2.7-1.2,3.9c-0.8,1.1-2.1,2.1-3.9,3c-1.8,0.9-3.3,1.6-4.6,2.1
	c-1.3,0.5-3.2,1.1-5.7,1.9c-2.5,0.8-4.1,1.3-4.7,1.5c-33.6,11.6-50.7,17.7-51.6,18.1c-0.6,0.3-1,0.8-1,1.5c0,1,0.2,2.6,0.7,4.8
	c0.5,2.3,1.6,5.2,3.3,9c1.7,3.7,3.8,7.1,6.3,10.3c2.5,3.1,6.1,5.9,10.7,8.2s9.9,3.5,15.7,3.5c11.2,0,21-4,29.4-12.1
	c2.2-2.3,4.1-3.4,5.5-3.4c2.7,0,4.1,1.2,4.1,3.6c0,1-0.6,2.3-1.9,3.9c-5.1,6.8-11.6,12.1-19.3,16.1c-7.7,4-15.8,5.9-24.3,5.9
	c-5.5,0-10.8-1-16-2.9c-5.2-1.9-10.3-4.9-15.2-9s-8.8-9.8-11.8-17.4S21.5,343.4,21.5,333.4z M87.5,307.8c0-2.1-2.8-5.4-8.4-9.8
	c-5.6-4.4-11.5-6.7-17.6-6.7c-7.2,0-13,3.1-17.2,9.4s-6.4,14.9-6.4,25.9c0,1.3,0.4,1.9,1.2,1.9c0.3,0,8-2.9,23-8.8
	c15-5.9,22.8-8.9,23.2-9.1C86.8,309.9,87.5,308.9,87.5,307.8z M163.2,381.1c0,3.2-1,4.8-2.9,4.8c-0.2,0-0.7,0-1.6-0.1
	c-0.9-0.1-2-0.2-3.5-0.4c-1.4-0.2-3.1-0.3-4.8-0.5c-1.8-0.2-3.9-0.3-6.3-0.4c-2.4-0.1-4.7-0.1-7-0.1s-4.5,0-6.7,0.1
	c-2.2,0.1-4.3,0.2-6,0.2s-3.3,0.2-4.7,0.4c-1.4,0.2-2.4,0.3-3.3,0.4c-0.8,0.1-1.3,0.1-1.4,0.1c-2.4,0-3.6-1.5-3.6-4.4v-0.7
	c0-2.1,0.5-3.4,1.6-4c1-0.6,3.9-1.1,8.6-1.6c2.9-0.3,4.8-1.2,5.7-2.8c0.9-1.5,1.3-3.7,1.3-6.7v-126c0-0.5,0-0.9-0.1-1.3
	c-0.1-0.4-0.2-0.8-0.4-1.1c-0.2-0.3-0.3-0.6-0.4-0.8c-0.1-0.2-0.3-0.5-0.7-0.7s-0.7-0.4-1-0.6c-0.2-0.2-0.7-0.4-1.4-0.8
	c-0.7-0.4-1.2-0.7-1.6-0.8c-1.6-1-3.3-2-5.2-3s-3.1-1.8-3.9-2.3c-0.7-0.5-1.5-1-2.3-1.6c-0.8-0.6-1.3-1-1.6-1.5s-0.4-0.8-0.4-1.3
	v-0.2c0-0.8,3.1-2.8,9.2-6c7.5-3.7,14.6-7.3,21.2-10.9c1-0.6,2-1,3.1-1c2.2,0,3.4,1.5,3.4,4.6v156.7c0,1,0,1.8,0.1,2.4
	c0.1,0.6,0.2,1.2,0.4,1.8c0.2,0.6,0.3,1,0.5,1.3s0.5,0.6,1.1,1c0.6,0.3,1,0.6,1.2,0.7s0.8,0.4,1.7,0.6c0.9,0.2,1.5,0.4,1.9,0.5
	c0.4,0.1,1.3,0.2,2.6,0.4c1.4,0.2,2.4,0.3,3,0.5C161.8,376.5,163.2,378.2,163.2,381.1z M155.6,333.4c0-16.8,4.4-30.2,13.2-40.4
	c8.8-10.2,19.6-15.2,32.3-15.2c8.2,0,16.1,2.3,23.6,6.8c7.5,4.5,13.8,10.2,18.8,16.9c1.3,1.6,1.9,3.4,1.9,5.3v0.5
	c0,1.5-0.4,2.7-1.2,3.9c-0.8,1.1-2.1,2.1-3.9,3c-1.8,0.9-3.3,1.6-4.6,2.1s-3.2,1.1-5.7,1.9s-4.1,1.3-4.7,1.5
	c-33.6,11.6-50.7,17.7-51.6,18.1c-0.6,0.3-1,0.8-1,1.5c0,1,0.2,2.6,0.7,4.8c0.5,2.3,1.6,5.2,3.3,9s3.8,7.1,6.3,10.3
	c2.5,3.1,6.1,5.9,10.7,8.2s9.9,3.5,15.7,3.5c11.2,0,21-4,29.4-12.1c2.2-2.3,4.1-3.4,5.5-3.4c2.7,0,4.1,1.2,4.1,3.6
	c0,1-0.6,2.3-1.9,3.9c-5.1,6.8-11.6,12.1-19.3,16.1c-7.7,4-15.8,5.9-24.3,5.9c-5.5,0-10.8-1-16-2.9c-5.2-1.9-10.3-4.9-15.2-9
	c-4.9-4-8.8-9.8-11.8-17.4C157.1,352.2,155.6,343.4,155.6,333.4z M223.7,307.8c0-2.1-2.8-5.4-8.4-9.8c-5.6-4.4-11.5-6.7-17.6-6.7
	c-7.2,0-13,3.1-17.2,9.4s-6.4,14.9-6.4,25.9c0,1.3,0.4,1.9,1.2,1.9c0.3,0,8-2.9,23-8.8c15-5.9,22.8-8.9,23.2-9.1
	C222.9,309.9,223.7,308.9,223.7,307.8z M250.8,315.8c0-10.5,3.8-19.5,11.4-27.1c7.6-7.6,17.1-11.4,28.3-11.4
	c6.9,0,13.6,1.5,20.1,4.4c6.5,2.9,10.2,4.4,11,4.4c5.1,0,9.5-2.6,13-7.7c2.4-3.9,4.7-5.8,7-5.8s4.4,1.1,6.4,3.3c2,2.2,3,4.5,3,6.9
	c0,2.9-1.2,5.4-3.7,7.5s-5.4,3.8-8.7,5.2c-3.3,1.4-5,2.1-5.2,2.3c-0.8,0.8-1.2,1.5-1.2,1.9c0,0.3,0.2,1.1,0.7,2.4
	c0.5,1.3,1,3.1,1.4,5.4c0.5,2.3,0.7,4.9,0.7,7.6c0,11.4-4,21.2-11.9,29.4c-7.9,8.1-17.6,12.2-29,12.2c-3.2,0-6.3-0.4-9.2-1.1
	c-2.9-0.7-4.7-1.1-5.3-1.1c-2.2,0-4.7,1.4-7.2,4.2s-3.9,5.6-3.9,8.3c0,4.4,3.5,7.3,10.5,8.7c7,1.5,15.9,2.3,26.7,2.7
	c10.8,0.3,18.6,1.2,23.2,2.7c7.4,2.1,13,5.7,16.7,10.8s5.7,10.6,5.7,16.6c0,3.7-0.8,7.4-2.4,11.1c-1.6,3.7-4.2,7.3-7.8,10.9
	c-3.6,3.5-9,6.5-16,8.7c-7.1,2.3-15.4,3.4-25.1,3.4c-17.8,0-30.3-3.3-37.5-9.8S252,419.1,252,411.3c0-1.6,0.2-3.2,0.5-4.7
	c0.3-1.5,0.7-2.9,1.2-4.1c0.5-1.2,1-2.3,1.6-3.4c0.6-1,1.2-2,1.9-2.9c0.7-0.9,1.4-1.7,2.2-2.3c0.7-0.6,1.4-1.2,2-1.7
	c0.6-0.5,1.2-0.9,1.7-1.3c0.5-0.4,0.9-0.7,1.2-0.8l0.5-0.2c0.3-0.3,0.5-0.7,0.5-1.2c0-0.2-0.8-0.7-2.3-1.7s-3.1-2.6-4.6-4.8
	s-2.3-5-2.3-8.2c0-7.9,4.6-15.6,13.7-23l0.2-0.2c0.2-0.2,0.2-0.4,0.2-0.7c0-0.6-0.7-1.4-2.2-2.2s-3.4-2.4-5.9-4.7s-4.8-5.4-6.9-9.1
	C252.3,328.4,250.8,322.4,250.8,315.8z M291.3,285.6c-6.3,0-11.4,2.5-15.4,7.6c-4,5.1-6,11.7-6,19.7c0,9.5,2.4,17.7,7.2,24.7
	c4.8,6.9,10.9,10.4,18.3,10.4c6.6,0,11.9-2.6,15.9-7.9c4-5.2,6-11.7,6-19.5c0-9.2-2.4-17.3-7.3-24.4
	C305,289.1,298.8,285.6,291.3,285.6z M265.7,406.3c0,7.3,3.8,13.1,11.4,17.7c7.6,4.5,17.2,6.8,28.8,6.8c11.4,0,19.5-1.8,24.2-5.4
	c4.7-3.6,7.1-7.8,7.1-12.5c0-6.8-3.3-11.7-9.9-14.8c-3.4-1.8-7.3-2.9-11.8-3.5c-4.5-0.6-10.8-1-18.9-1.2s-15.2-0.7-21.3-1.3h-0.7
	c-1.1,0-2.6,0.9-4.3,2.7C267.3,397.7,265.7,401.6,265.7,406.3z M347.2,299.1c0-4.8,3.9-9.7,11.7-14.6c7.8-4.9,16.5-7.4,26.1-7.4
	c3.1,0,6.2,0.3,9.4,1c3.2,0.6,6.9,1.8,11,3.4c4.1,1.6,7.5,4.4,10.4,8.3c2.8,4,4.5,8.7,5.2,14.4c0.3,3.9,0.5,6.9,0.5,9V362
	c0,2.9,0.6,5.2,1.7,7s2.2,2.9,3.4,3.3c1.1,0.4,2.2,0.6,3.4,0.6c2.2,0,4-0.7,5.3-2.1s2.3-2.7,3-4.1s1.6-2.1,2.5-2.1
	c1.4,0,2.2,1,2.2,3.1c0,3.9-1.8,8.1-5.3,12.7s-8.1,6.9-13.7,6.9c-2.1,0-4.1-0.3-6-1c-1.9-0.6-3.5-1.5-4.8-2.5s-2.4-2.1-3.5-3
	c-1-1-1.9-1.9-2.5-2.7l-0.7-1c-0.2-0.2-0.3-0.2-0.5-0.2c-0.3,0-0.6,0.2-0.7,0.5c-0.2,0.3-0.7,1-1.7,1.9c-1,1-2.3,2-4.1,3.1
	c-7.2,4.5-14.9,6.8-22.9,6.8c-8.4,0-15.1-2.7-20.4-8c-5.2-5.3-7.8-11.9-7.8-19.6c0-9.6,3.5-16.9,10.4-22.3c2.4-1.9,5.5-3.7,9.4-5.2
	c3.9-1.5,7.7-2.7,11.4-3.5c3.8-0.8,7.3-1.5,10.7-2.1s6.2-0.9,8.4-1.1l3.4-0.2c1.3-0.3,1.9-1.5,1.9-3.4v-9c0-8.5-1.9-15.2-5.8-19.8
	c-4-4.4-8.8-6.5-14.5-6.5c-8.7,0-15.7,5.5-21.2,16.4c-1.4,1.9-3.2,2.9-5.3,2.9c-2.6,0-4.9-0.8-6.9-2.4S347.2,301.8,347.2,299.1
	L347.2,299.1z M382.1,375.8c3.7,0,7.2-0.8,10.5-2.4c3.3-1.6,5.6-3.1,6.9-4.4c1.3-1.3,2.3-2.4,3.1-3.4c1-1.3,1.4-3.1,1.4-5.6v-16.2
	c0-3.1-0.1-5-0.4-5.9c-0.2-0.9-0.9-1.3-2-1.3c-4,0-9,0.6-15.1,1.9c-6,1.3-10.8,3.6-14.3,7c-3.9,3.2-5.8,7.7-5.8,13.5
	c0,6.1,1.7,10.6,5.1,13.5C373.8,374.7,377.3,375.8,382.1,375.8z M473.4,291.1c0,0.6,0.2,1,0.7,1h0.2c0.2,0,0.8-0.5,1.8-1.5
	s2.5-2.2,4.5-3.6c1.9-1.5,4.2-2.9,6.7-4.4c2.6-1.5,5.7-2.7,9.4-3.7c3.7-1,7.5-1.6,11.6-1.6h0.5c3.4,0,6.7,0.4,10,1.3
	c3.3,0.9,6.8,2.5,10.6,4.8c3.8,2.3,6.9,6,9.5,11c2.6,5,4.2,11.1,4.8,18.4c0.3,2.7,0.5,6.9,0.5,12.6v4.7c0,2.5,0,7-0.1,13.4
	c-0.1,6.5-0.1,14.7-0.1,24.7v0.5c0,0.8,0.1,1.6,0.2,2.3c0.2,0.7,0.3,1.3,0.4,1.7c0.1,0.4,0.4,0.8,0.8,1.2s0.8,0.7,1.1,0.8
	c0.2,0.2,0.8,0.4,1.7,0.6c0.9,0.2,1.5,0.4,1.9,0.4s1.3,0.1,2.6,0.2c1.4,0.2,2.4,0.3,3,0.5c2.4,0.3,3.6,1.9,3.6,4.6
	c0,3.2-1.3,4.8-3.9,4.8c-0.5,0-1.6-0.1-3.4-0.4c-1.8-0.2-4.2-0.5-7.3-0.7c-3.1-0.2-6.5-0.4-10-0.4c-2.1,0-4.2,0-6.3,0.1
	s-3.9,0.2-5.4,0.4s-2.9,0.3-4.2,0.5c-1.3,0.2-2.3,0.3-3.1,0.5h-1.2c-2.2,0-3.4-1.6-3.4-4.8c0-1.8,0.5-2.9,1.4-3.4
	c1-0.5,3.5-1,7.7-1.7c1.4-0.3,2.6-0.6,3.6-0.7c1.6-0.3,2.7-0.8,3.3-1.6c0.6-0.7,0.8-2.1,0.8-4.2V331c0-12.1-1.1-21-3.4-26.9
	c-2.4-5.5-6-9.3-10.8-11.5c-4.8-2.2-9.4-3.3-13.7-3.3c-6.3,0-11.9,1.9-16.9,5.8c-5,3.9-7.8,7.3-8.4,10.2c-0.3,1.3-0.5,2.4-0.5,3.4
	V368c0,4.2,1.8,6.5,5.5,7c7.2,1.1,11.2,2,11.8,2.7c1,0.8,1.4,2.2,1.4,4.1c0,2.9-1,4.4-3.1,4.4c-0.2,0-0.7,0-1.6-0.1
	c-0.9-0.1-2-0.2-3.5-0.4c-1.4-0.2-3.1-0.4-4.8-0.6c-1.8-0.2-3.8-0.4-6.1-0.5s-4.6-0.1-6.9-0.1s-4.5,0-6.7,0.1s-4.2,0.2-5.9,0.4
	c-1.7,0.2-3.2,0.3-4.5,0.5c-1.3,0.2-2.3,0.3-3.1,0.4s-1.3,0.1-1.4,0.1c-2.7,0-4.1-1.5-4.1-4.4c0-2.3,0.5-3.7,1.6-4.2
	c1-0.6,3.7-1.2,8.1-1.8c2.9-0.5,4.7-1.4,5.4-2.7c0.7-1.3,1.1-3.2,1.1-5.8v-59c0-2.9-0.4-4.9-1.2-5.9c-0.8-1-4.1-3.7-9.9-8.1
	c-1-1-1.4-1.8-1.4-2.4v-0.2c0-0.8,0.6-1.6,1.7-2.3c1.1-0.7,4.6-2.6,10.4-5.7c4.5-2.4,8.3-4.4,11.3-6c1-0.6,1.8-1,2.4-1
	c1.9,0,2.9,1.2,2.9,3.6v9.7c0,0.2-0.1,0.5-0.2,1L473.4,291.1z M551.6,294c-3.4,0-5.1-1-5.1-3.1c0-1,1.2-2.5,3.5-4.5
	c2.3-2,5.7-5.4,10-10.2c4.3-4.8,8.4-10.4,12.3-16.8c1.8-3.1,3.4-4.6,4.8-4.6c2.2,0,3.4,1.4,3.4,4.1c0,1.1,0,4-0.1,8.7
	s-0.1,7.6-0.1,8.7c0,3.2,1.6,4.8,4.8,4.8h22.2c0.3,0,0.7,0,1.2,0.1c0.5,0.1,0.8,0.1,1,0.1c4.2,0,6.3,1.5,6.3,4.6
	c0,3.1-0.7,5.5-2.2,7.3c-0.8,0.8-2.2,1.2-4.3,1.2h-28.9c-1.6,0-2.4,0.8-2.4,2.4c0,13.4,0,24.5-0.1,33.4s-0.2,14.8-0.2,17.9
	c-0.1,3.1-0.1,5.2-0.1,6.5c0,12.3,4.3,18.4,12.8,18.4c3.4,0,6.9-1.2,10.6-3.7c3.7-2.5,6.9-5,9.8-7.5c2.8-2.5,4.9-3.7,6.4-3.7
	c1.3,0,2.4,0.5,3.3,1.5c0.9,1,1.3,2,1.3,3.1c0,1-0.6,2.3-1.7,4.1c-13,14.8-24.5,22.3-34.4,22.3c-5.9,0-11.4-2.4-16.3-7.1
	c-4.9-4.8-7.7-12.4-8.6-22.9c-0.2-1.8-0.2-4.4-0.2-8c0-4,0.2-13.8,0.5-29.4c0.3-15.6,0.5-24.1,0.5-25.5s-0.6-2.2-1.7-2.2L551.6,294z
	"/>
<path class="st2" d="M498,263.7L481,250.3c5.4-6.2,11.1-12.1,17-17.8c2.3-2.3,3.8-3.8,4.4-4.4c-1.9-0.3-7.3-1.6-16.2-3.8
	c-6.4-1.6-10.6-2.8-12.7-3.6l6.7-20.2c9.9,4.1,18.7,8.5,26.5,13.5c-1.8-12.5-2.7-22.7-2.7-30.6h20.1c0,5.6-1,15.9-3.1,30.8
	c1.5-0.6,4.8-2.1,9.7-4.5c6.8-3.1,13-5.8,18.8-8l6,20.8c-8.4,1.9-18.1,3.8-29.1,5.6l13.6,15.5c2.7,3.1,4.9,5.7,6.4,7.7l-17.3,11.6
	l-15.3-25.6C509.3,245.6,504,254.4,498,263.7z"/>
</svg>
