<svg class="size-square icon-lower" version="1.1" id="Layer_1" xmlns="http://www.w3.org/2000/svg" xmlns:xlink="http://www.w3.org/1999/xlink" x="0px" y="0px" width="640px" height="640px" viewBox="0 0 640 640" enable-background="new 0 0 640 640" xml:space="preserve"> <polygon id="linearicons8" fill="#dbe4ff" points="304,560 432,208 592,240"></polygon> <polygon id="linearicons6" fill="#dbe4ff" points="304,560 432,208 176,208"></polygon> <polygon id="linearicons3" fill="#dbe4ff" points="304,560 176,208 16,240"></polygon> <polygon id="linearicons7" fill="#dbe4ff" points="592,240 496,112 432,208"></polygon> <polygon id="linearicons5" fill="#dbe4ff" points="432,208 304,80 496,112"></polygon> <polygon id="linearicons4" fill="#dbe4ff" points="176,208 304,80 432,208"></polygon> <polygon id="linearicons2" fill="#dbe4ff" points="176,208 112,112 304,80"></polygon> <polygon id="linearicons1" fill="#dbe4ff" points="176,208 112,112 16,240"></polygon> <path fill="#0F52BA" d="M604.8,230.4l-96-128c-2.469-3.292-6.11-5.506-10.17-6.182l-192-32c-1.741-0.29-3.52-0.29-5.261,0l-192,32 c-4.059,0.676-7.701,2.891-10.169,6.182l-96,128c-4.587,6.116-4.207,14.622,0.907,20.304l288,320 C295.142,574.075,299.464,576,304,576s8.858-1.925,11.893-5.297l288-320C609.007,245.021,609.387,236.516,604.8,230.4z M409.156,224 L304,513.182L198.843,224H409.156z M214.628,192L304,102.628L393.372,192H214.628z M350.618,103.99l118.343,19.724l-39.447,59.171 L350.618,103.99z M178.487,182.885l-39.448-59.171l118.343-19.724L178.487,182.885z M149.435,196.996l-95.508,19.102l57.305-76.406 L149.435,196.996z M165.661,226.385l95.178,261.74L46.688,250.18L165.661,226.385z M442.34,226.385l118.973,23.795L347.161,488.125 L442.34,226.385z M458.565,196.996l38.203-57.305l57.305,76.406L458.565,196.996z"></path> </svg>